<?xml version="1.0" encoding="UTF-8"?><svg id="Layer_2" xmlns="http://www.w3.org/2000/svg" viewBox="0 0 477.23 426.13"><defs><style>.cls-1{fill:#609ace;}</style></defs><g id="Layer_1-2"><g id="_0GAHe4.tif"><path class="cls-1" d="M134.46,260.67c47.65-93.66,155.66-97.72,204.8-2.02.75,1.45,1.88,2.72,3.24,3.62,116.36,77.29,41.68,200.5-81.03,147.81-.93-.4-1.96-.68-2.97-.77-45.44-4.24-67.57,14.76-102.97,16.79-.5.03-1.02.03-1.52,0-102.46-5.86-100.71-118.61-23.48-161.37,1.68-.93,3.06-2.35,3.93-4.06Z"/><path class="cls-1" d="M329.27.89c80.1,37.14,36.29,197.46-55.54,166.65-2.16-.72-4.03-2.22-5.2-4.17C234.92,107.54,246.96,8.53,324.09.06c1.75-.19,3.58.09,5.18.84Z"/><path class="cls-1" d="M171.87,6.9c95.79,41.83,34.5,243.18-53.99,131.56C81.86,94.73,105.74-24.17,171.87,6.9Z"/><path class="cls-1" d="M415.35,121.09c166.39,17.19-55.18,272.31-57.65,74.97-.01-.91.09-1.85.31-2.73,4.42-17.72,11.34-33.85,17.52-49.51,1.38-3.5,4.63-5.81,8.38-6.17,10.04-.97,18.05-12.75,27.47-16.19,1.25-.46,2.64-.52,3.96-.38Z"/><path class="cls-1" d="M42.47,122.29c126.19,9.11,67.91,243.33-30.88,105.54-.34-.48-.66-.99-.93-1.51-17.51-34.37-17.16-97.87,29.49-103.97.75-.1,1.55-.12,2.31-.06Z"/></g></g></svg>